<mxfile host="app.diagrams.net" modified="2024-07-05T10:15:28.802Z" agent="Mozilla/5.0 (Windows NT 10.0; Win64; x64) AppleWebKit/537.36 (KHTML, like Gecko) Chrome/126.0.0.0 Safari/537.36" etag="ezvFnYoawqPMZAh8iiq9" version="24.6.4" type="github">
  <diagram name="Page-1" id="ad9asQyNBZiAsjAaD_NG">
    <mxGraphModel dx="1500" dy="807" grid="1" gridSize="10" guides="1" tooltips="1" connect="1" arrows="1" fold="1" page="1" pageScale="1" pageWidth="850" pageHeight="1100" math="0" shadow="0">
      <root>
        <mxCell id="0" />
        <mxCell id="1" parent="0" />
        <mxCell id="HkkGmO7eRINAk4rCPBDj-1" value="" style="rounded=0;whiteSpace=wrap;html=1;fillColor=#dae8fc;strokeColor=#6c8ebf;" vertex="1" parent="1">
          <mxGeometry x="340" y="320" width="200" height="78" as="geometry" />
        </mxCell>
        <mxCell id="HkkGmO7eRINAk4rCPBDj-2" value="Servers" style="text;html=1;align=center;verticalAlign=middle;whiteSpace=wrap;rounded=0;" vertex="1" parent="1">
          <mxGeometry x="400" y="345" width="60" height="30" as="geometry" />
        </mxCell>
        <mxCell id="HkkGmO7eRINAk4rCPBDj-4" value="" style="rounded=0;whiteSpace=wrap;html=1;fillColor=#dae8fc;strokeColor=#6c8ebf;" vertex="1" parent="1">
          <mxGeometry x="180" y="490" width="120" height="60" as="geometry" />
        </mxCell>
        <mxCell id="HkkGmO7eRINAk4rCPBDj-5" value="Store Service" style="text;html=1;align=center;verticalAlign=middle;whiteSpace=wrap;rounded=0;" vertex="1" parent="1">
          <mxGeometry x="210" y="505" width="60" height="30" as="geometry" />
        </mxCell>
        <mxCell id="HkkGmO7eRINAk4rCPBDj-6" value="" style="shape=waypoint;sketch=0;size=6;pointerEvents=1;points=[];fillColor=default;resizable=0;rotatable=0;perimeter=centerPerimeter;snapToPoint=1;rounded=0;" vertex="1" parent="1">
          <mxGeometry x="230" y="480" width="20" height="20" as="geometry" />
        </mxCell>
        <mxCell id="HkkGmO7eRINAk4rCPBDj-8" value="" style="rounded=0;whiteSpace=wrap;html=1;fillColor=#ffe6cc;strokeColor=#d79b00;" vertex="1" parent="1">
          <mxGeometry x="360" y="490" width="120" height="60" as="geometry" />
        </mxCell>
        <mxCell id="HkkGmO7eRINAk4rCPBDj-9" value="Orders&lt;div&gt;Service&lt;/div&gt;" style="text;html=1;align=center;verticalAlign=middle;whiteSpace=wrap;rounded=0;" vertex="1" parent="1">
          <mxGeometry x="395" y="505" width="60" height="30" as="geometry" />
        </mxCell>
        <mxCell id="HkkGmO7eRINAk4rCPBDj-10" value="" style="rounded=0;whiteSpace=wrap;html=1;fillColor=#fff2cc;strokeColor=#d6b656;" vertex="1" parent="1">
          <mxGeometry x="540" y="490" width="120" height="60" as="geometry" />
        </mxCell>
        <mxCell id="HkkGmO7eRINAk4rCPBDj-11" value="&lt;div&gt;Payment&lt;/div&gt;&lt;div&gt;Service&lt;/div&gt;" style="text;html=1;align=center;verticalAlign=middle;whiteSpace=wrap;rounded=0;" vertex="1" parent="1">
          <mxGeometry x="575" y="505" width="60" height="30" as="geometry" />
        </mxCell>
        <mxCell id="HkkGmO7eRINAk4rCPBDj-12" value="" style="endArrow=classic;html=1;rounded=0;entryX=0.377;entryY=-0.07;entryDx=0;entryDy=0;entryPerimeter=0;" edge="1" parent="1" target="HkkGmO7eRINAk4rCPBDj-8">
          <mxGeometry width="50" height="50" relative="1" as="geometry">
            <mxPoint x="430" y="400" as="sourcePoint" />
            <mxPoint x="450" y="370" as="targetPoint" />
          </mxGeometry>
        </mxCell>
        <mxCell id="HkkGmO7eRINAk4rCPBDj-13" value="" style="endArrow=classic;html=1;rounded=0;" edge="1" parent="1" target="HkkGmO7eRINAk4rCPBDj-6">
          <mxGeometry width="50" height="50" relative="1" as="geometry">
            <mxPoint x="430" y="400" as="sourcePoint" />
            <mxPoint x="415" y="496" as="targetPoint" />
            <Array as="points" />
          </mxGeometry>
        </mxCell>
        <mxCell id="HkkGmO7eRINAk4rCPBDj-14" value="" style="endArrow=classic;html=1;rounded=0;entryX=0.333;entryY=0;entryDx=0;entryDy=0;entryPerimeter=0;" edge="1" parent="1" target="HkkGmO7eRINAk4rCPBDj-10">
          <mxGeometry width="50" height="50" relative="1" as="geometry">
            <mxPoint x="430" y="400" as="sourcePoint" />
            <mxPoint x="480" y="350" as="targetPoint" />
          </mxGeometry>
        </mxCell>
        <mxCell id="HkkGmO7eRINAk4rCPBDj-15" value="" style="rounded=0;whiteSpace=wrap;html=1;fillColor=#d5e8d4;strokeColor=#82b366;" vertex="1" parent="1">
          <mxGeometry x="680" y="490" width="120" height="60" as="geometry" />
        </mxCell>
        <mxCell id="HkkGmO7eRINAk4rCPBDj-16" value="&lt;div&gt;Payment&lt;/div&gt;&lt;div&gt;Service&lt;/div&gt;" style="text;html=1;align=center;verticalAlign=middle;whiteSpace=wrap;rounded=0;" vertex="1" parent="1">
          <mxGeometry x="715" y="505" width="60" height="30" as="geometry" />
        </mxCell>
        <mxCell id="HkkGmO7eRINAk4rCPBDj-17" value="" style="endArrow=classic;html=1;rounded=0;entryX=0.5;entryY=0;entryDx=0;entryDy=0;" edge="1" parent="1" target="HkkGmO7eRINAk4rCPBDj-15">
          <mxGeometry width="50" height="50" relative="1" as="geometry">
            <mxPoint x="430" y="400" as="sourcePoint" />
            <mxPoint x="670" y="488" as="targetPoint" />
          </mxGeometry>
        </mxCell>
        <mxCell id="HkkGmO7eRINAk4rCPBDj-19" value="" style="rounded=0;whiteSpace=wrap;html=1;fillColor=#f8cecc;strokeColor=#b85450;" vertex="1" parent="1">
          <mxGeometry x="340" y="170" width="200" height="78" as="geometry" />
        </mxCell>
        <mxCell id="HkkGmO7eRINAk4rCPBDj-20" value="ELB" style="text;html=1;align=center;verticalAlign=middle;whiteSpace=wrap;rounded=0;" vertex="1" parent="1">
          <mxGeometry x="400" y="195" width="60" height="30" as="geometry" />
        </mxCell>
        <mxCell id="HkkGmO7eRINAk4rCPBDj-21" value="" style="endArrow=classic;html=1;rounded=0;exitX=0.5;exitY=1;exitDx=0;exitDy=0;entryX=0.5;entryY=0;entryDx=0;entryDy=0;" edge="1" parent="1" source="HkkGmO7eRINAk4rCPBDj-19" target="HkkGmO7eRINAk4rCPBDj-1">
          <mxGeometry width="50" height="50" relative="1" as="geometry">
            <mxPoint x="400" y="320" as="sourcePoint" />
            <mxPoint x="450" y="270" as="targetPoint" />
          </mxGeometry>
        </mxCell>
        <mxCell id="HkkGmO7eRINAk4rCPBDj-22" value="DB" style="shape=cylinder3;whiteSpace=wrap;html=1;boundedLbl=1;backgroundOutline=1;size=15;fillColor=#a20025;fontColor=#ffffff;strokeColor=#6F0000;" vertex="1" parent="1">
          <mxGeometry x="210" y="675" width="60" height="80" as="geometry" />
        </mxCell>
        <mxCell id="HkkGmO7eRINAk4rCPBDj-24" value="DB" style="shape=cylinder3;whiteSpace=wrap;html=1;boundedLbl=1;backgroundOutline=1;size=15;fillColor=#1ba1e2;fontColor=#ffffff;strokeColor=#006EAF;" vertex="1" parent="1">
          <mxGeometry x="380" y="675" width="60" height="80" as="geometry" />
        </mxCell>
        <mxCell id="HkkGmO7eRINAk4rCPBDj-25" value="DB" style="shape=cylinder3;whiteSpace=wrap;html=1;boundedLbl=1;backgroundOutline=1;size=15;fillColor=#d80073;fontColor=#ffffff;strokeColor=#A50040;" vertex="1" parent="1">
          <mxGeometry x="710" y="675" width="60" height="80" as="geometry" />
        </mxCell>
        <mxCell id="HkkGmO7eRINAk4rCPBDj-26" value="DB" style="shape=cylinder3;whiteSpace=wrap;html=1;boundedLbl=1;backgroundOutline=1;size=15;fillColor=#0050ef;fontColor=#ffffff;strokeColor=#001DBC;" vertex="1" parent="1">
          <mxGeometry x="570" y="676" width="60" height="80" as="geometry" />
        </mxCell>
        <mxCell id="HkkGmO7eRINAk4rCPBDj-27" value="" style="endArrow=classic;html=1;rounded=0;entryX=0.647;entryY=-0.047;entryDx=0;entryDy=0;entryPerimeter=0;exitX=0.317;exitY=1.037;exitDx=0;exitDy=0;exitPerimeter=0;" edge="1" parent="1">
          <mxGeometry width="50" height="50" relative="1" as="geometry">
            <mxPoint x="409.99999999999994" y="551.98" as="sourcePoint" />
            <mxPoint x="410.7799999999999" y="676" as="targetPoint" />
          </mxGeometry>
        </mxCell>
        <mxCell id="HkkGmO7eRINAk4rCPBDj-28" value="" style="endArrow=classic;html=1;rounded=0;entryX=0.647;entryY=-0.047;entryDx=0;entryDy=0;entryPerimeter=0;exitX=0.317;exitY=1.037;exitDx=0;exitDy=0;exitPerimeter=0;" edge="1" parent="1">
          <mxGeometry width="50" height="50" relative="1" as="geometry">
            <mxPoint x="239.29" y="552" as="sourcePoint" />
            <mxPoint x="240.29" y="676" as="targetPoint" />
          </mxGeometry>
        </mxCell>
        <mxCell id="HkkGmO7eRINAk4rCPBDj-29" value="" style="endArrow=classic;html=1;rounded=0;entryX=0.647;entryY=-0.047;entryDx=0;entryDy=0;entryPerimeter=0;exitX=0.317;exitY=1.037;exitDx=0;exitDy=0;exitPerimeter=0;" edge="1" parent="1">
          <mxGeometry width="50" height="50" relative="1" as="geometry">
            <mxPoint x="590" y="551" as="sourcePoint" />
            <mxPoint x="591" y="675" as="targetPoint" />
          </mxGeometry>
        </mxCell>
        <mxCell id="HkkGmO7eRINAk4rCPBDj-30" value="" style="endArrow=classic;html=1;rounded=0;entryX=0.647;entryY=-0.047;entryDx=0;entryDy=0;entryPerimeter=0;exitX=0.317;exitY=1.037;exitDx=0;exitDy=0;exitPerimeter=0;" edge="1" parent="1">
          <mxGeometry width="50" height="50" relative="1" as="geometry">
            <mxPoint x="730" y="551" as="sourcePoint" />
            <mxPoint x="731" y="675" as="targetPoint" />
          </mxGeometry>
        </mxCell>
        <mxCell id="HkkGmO7eRINAk4rCPBDj-32" value="" style="endArrow=classic;html=1;rounded=0;entryX=0;entryY=0.5;entryDx=0;entryDy=0;" edge="1" parent="1" target="HkkGmO7eRINAk4rCPBDj-19">
          <mxGeometry width="50" height="50" relative="1" as="geometry">
            <mxPoint x="220" y="209" as="sourcePoint" />
            <mxPoint x="160" y="160" as="targetPoint" />
          </mxGeometry>
        </mxCell>
        <mxCell id="HkkGmO7eRINAk4rCPBDj-34" value="" style="rounded=0;whiteSpace=wrap;html=1;fillColor=#ffcd28;strokeColor=#d79b00;gradientColor=#ffa500;" vertex="1" parent="1">
          <mxGeometry x="30" y="160" width="190" height="90" as="geometry" />
        </mxCell>
        <mxCell id="HkkGmO7eRINAk4rCPBDj-35" value="WEB" style="text;html=1;align=center;verticalAlign=middle;whiteSpace=wrap;rounded=0;" vertex="1" parent="1">
          <mxGeometry x="40" y="190" width="60" height="30" as="geometry" />
        </mxCell>
        <mxCell id="HkkGmO7eRINAk4rCPBDj-36" value="MOBILE" style="text;html=1;align=center;verticalAlign=middle;whiteSpace=wrap;rounded=0;" vertex="1" parent="1">
          <mxGeometry x="120" y="190" width="60" height="30" as="geometry" />
        </mxCell>
        <mxCell id="HkkGmO7eRINAk4rCPBDj-38" value="" style="ellipse;shape=cloud;whiteSpace=wrap;html=1;fillColor=#b0e3e6;strokeColor=#0e8088;" vertex="1" parent="1">
          <mxGeometry x="10" y="676" width="120" height="80" as="geometry" />
        </mxCell>
        <mxCell id="HkkGmO7eRINAk4rCPBDj-39" value="S3" style="text;html=1;align=center;verticalAlign=middle;whiteSpace=wrap;rounded=0;" vertex="1" parent="1">
          <mxGeometry x="40" y="700" width="60" height="30" as="geometry" />
        </mxCell>
        <mxCell id="HkkGmO7eRINAk4rCPBDj-40" value="" style="endArrow=classic;html=1;rounded=0;" edge="1" parent="1" target="HkkGmO7eRINAk4rCPBDj-38">
          <mxGeometry width="50" height="50" relative="1" as="geometry">
            <mxPoint x="240" y="550" as="sourcePoint" />
            <mxPoint x="290" y="500" as="targetPoint" />
          </mxGeometry>
        </mxCell>
        <mxCell id="HkkGmO7eRINAk4rCPBDj-41" value="" style="endArrow=classic;html=1;rounded=0;" edge="1" parent="1">
          <mxGeometry width="50" height="50" relative="1" as="geometry">
            <mxPoint x="416" y="550" as="sourcePoint" />
            <mxPoint x="110" y="683" as="targetPoint" />
          </mxGeometry>
        </mxCell>
        <mxCell id="HkkGmO7eRINAk4rCPBDj-42" value="" style="endArrow=classic;html=1;rounded=0;" edge="1" parent="1">
          <mxGeometry width="50" height="50" relative="1" as="geometry">
            <mxPoint x="593" y="550" as="sourcePoint" />
            <mxPoint x="120" y="680" as="targetPoint" />
          </mxGeometry>
        </mxCell>
        <mxCell id="HkkGmO7eRINAk4rCPBDj-43" value="" style="endArrow=classic;html=1;rounded=0;" edge="1" parent="1">
          <mxGeometry width="50" height="50" relative="1" as="geometry">
            <mxPoint x="733" y="550" as="sourcePoint" />
            <mxPoint x="110" y="680" as="targetPoint" />
          </mxGeometry>
        </mxCell>
      </root>
    </mxGraphModel>
  </diagram>
</mxfile>
